<svg width="33" height="40" viewBox="0 0 33 40" fill="none" xmlns="http://www.w3.org/2000/svg">
<path d="M15.5616 19.8188C15.4455 20.1784 15.3685 20.5492 15.3191 20.9291L15.0934 22.6657L14.1071 21.2186C13.9828 21.0361 13.8457 20.8473 13.6968 20.6501L13.4607 20.3375L13.4785 20.2971L12.5725 19.3065C11.8999 18.5712 11.0898 17.7801 10.0849 16.9289L10.0837 16.9279C10.0413 16.8918 9.97283 16.8971 9.93659 16.9387L9.93575 16.9396C9.90672 16.9728 9.9066 17.025 9.94776 17.06L15.5616 19.8188ZM15.5616 19.8188C16.0965 18.1679 17.3177 16.7677 18.8033 16.0739L15.5616 19.8188ZM13.4796 20.2946L13.7202 18.9763C13.862 18.1997 13.751 17.5203 13.5892 17.0213L13.4796 20.2946ZM13.4796 20.2946L13.6189 19.9791C14.0456 19.0125 14.1043 17.9643 13.7835 16.9719C13.4172 15.8422 12.5804 14.8861 11.5676 14.4133L11.5669 14.413C9.45336 13.4234 7.22514 13.5437 5.16749 13.761L5.09748 13.098L5.16923 13.7608C5.12957 13.7651 5.10028 13.7887 5.08743 13.8151L5.08635 13.8173C5.07548 13.8395 5.07505 13.8691 5.09289 13.8971C5.35237 14.2966 5.73585 14.9147 5.92795 15.26L5.92812 15.2603C6.44306 16.187 6.67413 17.2337 6.84028 18.0604L13.4796 20.2946ZM20.3719 18.0523L20.3387 18.1665L19.8099 19.9834L21.3608 18.8992C22.0706 18.4029 22.8311 17.9502 23.6583 17.5655L23.6593 17.5651C23.7176 17.5379 23.7777 17.5673 23.7972 17.608L23.7975 17.6087C23.817 17.6495 23.803 17.7016 23.752 17.7254C22.1831 18.4559 20.8518 19.4081 19.7228 20.4642L18.3361 21.7614L20.2294 21.6158C21.4708 21.5203 22.4711 21.7337 22.5701 21.7554C22.6281 21.7702 22.6507 21.8217 22.6419 21.8608C22.6306 21.9058 22.5791 21.9443 22.5186 21.9304L22.4977 21.9255L22.4766 21.9221C22.5013 21.9261 20.3051 21.4316 18.3729 22.213C18.3724 22.2132 18.3717 22.2134 18.3708 22.2136C18.3684 22.2142 18.3649 22.2149 18.36 22.2158C18.3562 22.2165 18.3517 22.2172 18.3462 22.218L18.0764 22.2553L17.9099 22.4709C17.15 23.4552 16.5235 24.4703 16.0255 25.458L16.016 25.4769L16.0088 25.4936C16.0081 25.4951 16.0065 25.4982 16.0036 25.5036L15.9994 25.5115L15.9954 25.5196C15.1907 27.1309 14.7048 28.6654 14.4886 29.8341M20.3719 18.0523L9.94787 17.0601C11.335 18.2361 12.3647 19.2956 13.143 20.249L13.1941 20.3115L13.2287 20.3844C13.2334 20.3944 13.2419 20.4071 13.2591 20.4212L13.3158 20.4678L13.3609 20.5255C14.8643 22.4473 15.3145 23.893 15.6141 24.8707L15.615 24.8735C15.6526 24.998 15.6889 25.1147 15.724 25.2235L15.8057 25.4772L15.69 25.7174C14.9394 27.2748 14.4894 28.7267 14.2898 29.805L14.2897 29.8053C14.2825 29.8441 14.3074 29.8969 14.3702 29.9084L14.2502 30.5642L14.3679 29.908C14.3687 29.9082 14.3745 29.9092 14.3897 29.9092C14.4447 29.9092 14.4818 29.8702 14.4886 29.8341M20.3719 18.0523C20.3833 18.013 20.3628 17.9599 20.3045 17.9432M20.3719 18.0523L20.3045 17.9432M14.4886 29.8341C14.4887 29.8341 14.4887 29.834 14.4887 29.8339L15.1441 29.9556L14.4886 29.8344C14.4886 29.8343 14.4886 29.8342 14.4886 29.8341ZM15.0894 25.428C14.3157 27.0335 13.8457 28.5417 13.6343 29.6836L15.0894 25.428ZM15.0894 25.428C15.0529 25.3147 15.0154 25.1941 14.9767 25.066M15.0894 25.428L14.9767 25.066M14.9767 25.066C14.7275 24.2526 14.3798 23.129 13.3677 21.6592L14.9767 25.066ZM11.995 21.3864L11.9956 21.3863C12.0602 21.3765 12.0854 21.3243 12.0795 21.2867L12.0794 21.2864C12.0762 21.2654 12.0645 21.2439 12.0409 21.2268C12.017 21.2095 11.9906 21.2038 11.9662 21.2076L11.9626 21.2082L11.9626 21.2082C9.50675 21.577 7.41973 19.9249 7.03872 18.029L7.03872 18.029C6.85106 17.0953 6.61754 16.0971 6.1082 15.1795L6.10793 15.179C6.05631 15.0858 5.98878 14.9704 5.9101 14.8383L5.35085 13.8991L6.44181 13.8318C8.25742 13.7196 9.9086 13.8404 11.4752 14.5727L11.4756 14.5729C12.463 15.0352 13.243 15.9524 13.5891 17.0211L11.995 21.3864ZM11.995 21.3864C11.7359 21.4258 11.4851 21.4444 11.2412 21.4444C8.90658 21.4444 7.18244 19.7608 6.84031 18.0606L11.995 21.3864ZM19.4991 20.4279L19.3479 20.5758C18.3862 21.5161 17.5691 22.5311 16.8992 23.5589L16.109 24.771L15.7011 23.3828C15.287 21.9738 15.4759 20.7344 15.7557 19.8687L15.7557 19.8685C16.2703 18.2775 17.4329 16.9155 18.895 16.2331L18.8952 16.233C21.3754 15.0765 23.9895 14.9445 26.9457 15.1799L28.0334 15.2665L27.46 16.1948C27.2349 16.5592 27.0188 16.9219 26.8725 17.1853C26.1199 18.5405 25.7769 20.0225 25.5053 21.3754L25.5053 21.3755C25.1864 22.9634 24.2921 24.3609 23.0132 25.1859L23.0131 25.186C21.6231 26.0824 19.9108 26.2775 17.9983 25.8636L19.4991 20.4279ZM19.4991 20.4279L19.5375 20.22M19.4991 20.4279L19.5375 20.22M19.5375 20.22C19.5403 20.2045 19.5424 20.1909 19.5439 20.1808L20.176 18.0086C20.1761 18.0085 20.1761 18.0084 20.1762 18.0082C20.1898 17.9626 20.244 17.9263 20.3045 17.9432M19.5375 20.22L20.3045 17.9432M25.7037 21.406C25.9538 20.159 26.2943 18.6294 27.0537 17.2649C27.0538 17.2648 27.0539 17.2646 27.054 17.2644L25.7037 21.406ZM25.7037 21.406C25.3627 23.1021 24.4402 24.4866 23.1308 25.3323L25.7037 21.406ZM28.2848 15.2504L28.2834 15.2526L18.8034 16.0738C21.9235 14.6173 25.2258 14.802 28.2091 15.1178L28.2102 15.1179C28.2477 15.1218 28.2764 15.1443 28.2893 15.1709L28.2904 15.1731C28.3022 15.197 28.3015 15.2248 28.2848 15.2504ZM19.5473 20.1555C19.5474 20.1551 19.5474 20.1552 19.5473 20.1555L19.5473 20.1555Z" fill="#E2FFEE" stroke="#E2FFEE" stroke-width="1.33333"/>
<path d="M9.95555 34.8654C10.0532 34.9067 10.1552 34.9257 10.255 34.9257C10.5533 34.9257 10.8377 34.7532 10.9621 34.4654C11.1285 34.0812 10.9461 33.6367 10.5565 33.4726C4.5094 30.9315 0.918702 24.8893 1.62268 18.4364C2.42967 11.0554 8.69355 5.54129 16.0273 5.37406L14.1333 6.87906C13.8038 7.14048 13.7512 7.6178 14.0163 7.94272C14.1687 8.12899 14.3908 8.2253 14.6151 8.2253C14.7836 8.2253 14.9542 8.17027 15.0959 8.05808L18.5846 5.28728C18.9151 5.0248 18.9666 4.54854 18.7016 4.22256L15.8921 0.781816C15.626 0.456898 15.1431 0.405038 14.8125 0.667513C14.4831 0.929987 14.4305 1.40625 14.6966 1.73223L16.4276 3.85108C8.15269 3.81933 1.00348 9.98431 0.0966821 18.2734C-0.680266 25.393 3.28174 32.0608 9.95555 34.8654Z" fill="#E2FFEE"/>
<mask id="mask0_29_45" style="mask-type:luminance" maskUnits="userSpaceOnUse" x="13" y="5" width="20" height="35">
<path d="M13.7695 5.01636H33V39.5H13.7695V5.01636Z" fill="white"/>
</mask>
<g mask="url(#mask0_29_45)">
<path d="M22.0616 6.47587C28.1054 8.94186 31.8378 15.1492 31.137 21.5724C30.3311 28.9534 24.0651 34.4696 16.7292 34.6347L18.6254 33.1297C18.9548 32.8662 19.0074 32.3899 18.7413 32.065C18.4751 31.7391 17.9922 31.6872 17.6628 31.9507L14.173 34.7215C14.0152 34.8475 13.9143 35.0295 13.8918 35.2295C13.8703 35.4285 13.9294 35.6285 14.0571 35.7852L16.8676 39.2259C17.0189 39.4111 17.241 39.5075 17.4653 39.5075C17.6349 39.5075 17.8044 39.4524 17.9461 39.3402C18.2766 39.0778 18.3281 38.6015 18.0631 38.2766L16.33 36.1556C16.3503 36.1556 16.3707 36.1567 16.3911 36.1567C24.6414 36.1556 31.7595 30.0033 32.663 21.7354C33.4368 14.6486 29.3181 7.79882 22.6475 5.07777C22.2558 4.91795 21.8072 5.10211 21.6441 5.48735C21.4821 5.8726 21.6699 6.31605 22.0616 6.47587Z" fill="#E2FFEE"/>
</g>
</svg>
