<svg xmlns="http://www.w3.org/2000/svg" xmlns:xlink="http://www.w3.org/1999/xlink" width="611" zoomAndPan="magnify" viewBox="0 0 458.25 227.249992" height="303" preserveAspectRatio="xMidYMid meet" version="1.0"><defs><clipPath id="7df7ecfbd5"><path d="M 0.378906 0 L 457.121094 0 L 457.121094 226.503906 L 0.378906 226.503906 Z M 0.378906 0 " clip-rule="nonzero"/></clipPath><clipPath id="57a3099e50"><path d="M 2 161.839844 L 456 161.839844 L 456 226.503906 L 2 226.503906 Z M 2 161.839844 " clip-rule="nonzero"/></clipPath><clipPath id="4363318899"><path d="M 219 17 L 289 17 L 289 144.273438 L 219 144.273438 Z M 219 17 " clip-rule="nonzero"/></clipPath></defs><g clip-path="url(#7df7ecfbd5)"><path fill="#ffffff" d="M 0.378906 0 L 457.121094 0 L 457.121094 226.503906 L 0.378906 226.503906 Z M 0.378906 0 " fill-opacity="1" fill-rule="nonzero"/></g><g clip-path="url(#57a3099e50)"><path fill="#02471e" d="M 4.460938 166.175781 L 13.769531 166.175781 C 15.058594 166.175781 15.664062 166.78125 15.664062 168.082031 L 15.664062 191.148438 L 27.8125 191.148438 C 33.242188 191.148438 34.878906 190.539062 37.378906 187.246094 L 52.199219 167.300781 C 52.804688 166.519531 53.148438 166.175781 54.699219 166.175781 L 65.382812 166.175781 C 66.847656 166.175781 67.109375 167.476562 66.503906 168.253906 L 49.789062 190.019531 C 47.804688 192.621094 46.253906 194.441406 44.617188 195.832031 C 46.945312 197.304688 49.011719 199.296875 51.167969 202.074219 L 68.832031 224.617188 C 69.261719 225.226562 69.433594 226.875 67.710938 226.875 L 56.679688 226.875 C 55.214844 226.875 54.871094 226.527344 54.269531 225.746094 L 38.414062 205.109375 C 36.085938 202.074219 34.105469 201.207031 28.761719 201.207031 L 15.664062 201.207031 L 15.664062 224.964844 C 15.664062 226.265625 15.058594 226.875 13.769531 226.875 L 4.460938 226.875 C 3.167969 226.875 2.480469 226.265625 2.480469 224.964844 L 2.480469 168.082031 C 2.480469 166.78125 3.167969 166.175781 4.460938 166.175781 Z M 75.289062 179.269531 L 112.515625 179.269531 C 128.027344 179.269531 133.023438 184.296875 133.023438 196.871094 L 133.023438 219.9375 C 133.023438 225.574219 131.644531 226.875 126.648438 226.875 L 85.628906 226.875 C 75.460938 226.875 72.359375 223.144531 72.359375 214.558594 L 72.359375 210.398438 C 72.359375 203.113281 75.460938 199.039062 85.628906 199.039062 L 120.699219 199.039062 L 120.699219 197.390625 C 120.699219 191.839844 118.804688 189.671875 111.308594 189.671875 L 75.289062 189.671875 C 74.253906 189.671875 73.738281 189.238281 73.738281 188.113281 L 73.738281 180.828125 C 73.738281 179.789062 74.253906 179.269531 75.289062 179.269531 Z M 118.203125 217.335938 C 120.011719 217.335938 120.699219 216.554688 120.699219 214.386719 L 120.699219 206.757812 L 89.164062 206.757812 C 85.628906 206.757812 84.335938 208.230469 84.335938 211.003906 L 84.335938 212.824219 C 84.335938 215.949219 85.628906 217.335938 89.164062 217.335938 Z M 143.972656 161.839844 L 152.417969 161.839844 C 153.710938 161.839844 154.3125 162.445312 154.3125 163.746094 L 154.3125 179.269531 L 186.628906 179.269531 C 202.136719 179.269531 207.136719 184.296875 207.136719 196.871094 L 207.136719 209.359375 C 207.136719 221.929688 202.136719 226.875 186.628906 226.875 L 162.5 226.875 C 146.988281 226.875 141.992188 221.929688 141.992188 209.359375 L 141.992188 163.746094 C 141.992188 162.445312 142.679688 161.839844 143.972656 161.839844 Z M 185.421875 189.671875 L 154.3125 189.671875 L 154.3125 206.929688 C 154.3125 214.214844 156.296875 216.46875 163.707031 216.46875 L 185.421875 216.46875 C 192.917969 216.46875 194.898438 214.214844 194.898438 206.929688 L 194.898438 199.210938 C 194.898438 191.929688 192.917969 189.671875 185.421875 189.671875 Z M 218.347656 179.269531 L 255.574219 179.269531 C 271.082031 179.269531 276.082031 184.296875 276.082031 196.871094 L 276.082031 219.9375 C 276.082031 225.574219 274.703125 226.875 269.703125 226.875 L 228.6875 226.875 C 218.519531 226.875 215.417969 223.144531 215.417969 214.558594 L 215.417969 210.398438 C 215.417969 203.113281 218.519531 199.039062 228.6875 199.039062 L 263.757812 199.039062 L 263.757812 197.390625 C 263.757812 191.839844 261.863281 189.671875 254.367188 189.671875 L 218.347656 189.671875 C 217.3125 189.671875 216.796875 189.238281 216.796875 188.113281 L 216.796875 180.828125 C 216.796875 179.789062 217.3125 179.269531 218.347656 179.269531 Z M 261.261719 217.335938 C 263.070312 217.335938 263.757812 216.554688 263.757812 214.386719 L 263.757812 206.757812 L 232.21875 206.757812 C 228.6875 206.757812 227.394531 208.230469 227.394531 211.003906 L 227.394531 212.824219 C 227.394531 215.949219 228.6875 217.335938 232.21875 217.335938 Z M 286.339844 179.269531 L 323.566406 179.269531 C 339.078125 179.269531 344.074219 184.296875 344.074219 196.871094 L 344.074219 219.9375 C 344.074219 225.574219 342.699219 226.875 337.699219 226.875 L 296.683594 226.875 C 286.511719 226.875 283.410156 223.144531 283.410156 214.558594 L 283.410156 210.398438 C 283.410156 203.113281 286.511719 199.039062 296.683594 199.039062 L 331.753906 199.039062 L 331.753906 197.390625 C 331.753906 191.839844 329.859375 189.671875 322.359375 189.671875 L 286.339844 189.671875 C 285.308594 189.671875 284.789062 189.238281 284.789062 188.113281 L 284.789062 180.828125 C 284.789062 179.789062 285.308594 179.269531 286.339844 179.269531 Z M 329.253906 217.335938 C 331.0625 217.335938 331.753906 216.554688 331.753906 214.386719 L 331.753906 206.757812 L 300.214844 206.757812 C 296.683594 206.757812 295.390625 208.230469 295.390625 211.003906 L 295.390625 212.824219 C 295.390625 215.949219 296.683594 217.335938 300.214844 217.335938 Z M 351.320312 192.363281 L 377.257812 192.363281 C 378.289062 192.363281 378.808594 192.882812 378.808594 193.921875 L 378.808594 200.164062 C 378.808594 201.207031 378.289062 201.726562 377.257812 201.726562 L 351.320312 201.726562 C 350.285156 201.726562 349.769531 201.207031 349.769531 200.164062 L 349.769531 193.921875 C 349.769531 192.882812 350.285156 192.363281 351.320312 192.363281 Z M 389.046875 166.175781 L 429.375 166.175781 C 448.074219 166.175781 455.742188 173.71875 455.742188 190.628906 L 455.742188 202.421875 C 455.742188 219.328125 448.074219 226.875 429.375 226.875 L 389.046875 226.875 C 387.324219 226.875 386.460938 226.007812 386.460938 224.273438 L 386.460938 168.777344 C 386.460938 167.042969 387.324219 166.175781 389.046875 166.175781 Z M 399.648438 179.441406 L 399.648438 213.691406 C 399.648438 214.472656 399.992188 214.820312 400.765625 214.820312 L 429.03125 214.820312 C 439.199219 214.820312 442.558594 211.523438 442.558594 201.292969 L 442.558594 191.753906 C 442.558594 181.523438 439.199219 178.226562 429.03125 178.226562 L 400.765625 178.226562 C 399.992188 178.226562 399.648438 178.574219 399.648438 179.441406 Z M 399.648438 179.441406 " fill-opacity="1" fill-rule="nonzero"/></g><path fill="#02471e" d="M 221.359375 60.367188 C 219.828125 55.578125 216.335938 51.5 212.011719 49.453125 C 203.660156 45.488281 194.949219 46.023438 187.433594 46.828125 C 186.472656 46.933594 185.632812 47.527344 185.214844 48.398438 C 184.792969 49.269531 184.859375 50.296875 185.378906 51.113281 C 186.3125 52.570312 187.675781 54.800781 188.335938 56.003906 C 190.007812 59.054688 190.792969 62.574219 191.398438 65.628906 C 192.867188 73.03125 200.121094 80.09375 209.796875 80.09375 C 210.808594 80.09375 211.84375 80.015625 212.90625 79.851562 C 214.433594 79.617188 215.480469 78.195312 215.246094 76.671875 C 215.011719 75.144531 213.570312 74.089844 212.0625 74.328125 C 204.367188 75.5 198.003906 70.21875 196.878906 64.542969 C 196.191406 61.074219 195.285156 57.0625 193.234375 53.316406 C 193.027344 52.9375 192.765625 52.484375 192.476562 51.992188 C 198.902344 51.589844 204.445312 52.046875 209.621094 54.5 C 212.566406 55.898438 214.96875 58.726562 216.035156 62.066406 C 216.527344 63.605469 216.863281 65.695312 216.433594 68.082031 C 213.914062 65.289062 210.890625 62.296875 207.15625 59.089844 C 205.988281 58.082031 204.222656 58.21875 203.21875 59.386719 C 202.210938 60.554688 202.347656 62.320312 203.519531 63.328125 C 208.472656 67.585938 212.113281 71.390625 214.839844 74.777344 C 215.015625 75.152344 215.273438 75.484375 215.601562 75.757812 C 220.8125 82.511719 222.34375 87.523438 223.394531 91 C 223.535156 91.472656 223.671875 91.917969 223.804688 92.335938 C 220.988281 98.261719 219.277344 103.828125 218.507812 108.042969 C 218.230469 109.558594 219.234375 111.011719 220.75 111.292969 C 220.921875 111.324219 221.089844 111.335938 221.257812 111.335938 C 222.582031 111.335938 223.757812 110.390625 224.003906 109.046875 C 224.746094 104.976562 226.4375 99.53125 229.273438 93.773438 C 229.3125 93.699219 229.347656 93.628906 229.378906 93.554688 C 231.125 90.042969 233.324219 86.429688 235.992188 82.925781 C 236.214844 82.894531 236.441406 82.84375 236.660156 82.753906 C 242.949219 80.171875 250.230469 81.8125 250.300781 81.824219 C 251.800781 82.175781 253.300781 81.242188 253.65625 79.742188 C 254.007812 78.242188 253.078125 76.738281 251.578125 76.382812 C 251.332031 76.328125 247.335938 75.421875 242.328125 75.8125 C 246.273438 72.070312 250.910156 68.710938 256.363281 66.136719 C 257.757812 65.476562 258.351562 63.8125 257.691406 62.414062 C 257.035156 61.019531 255.367188 60.425781 253.972656 61.085938 C 250.816406 62.574219 247.925781 64.320312 245.242188 66.222656 L 245.363281 65.800781 C 245.789062 64.316406 244.929688 62.769531 243.449219 62.34375 C 241.964844 61.917969 240.421875 62.777344 239.992188 64.257812 L 237.652344 72.410156 C 237.628906 72.496094 237.625 72.582031 237.609375 72.667969 C 233.976562 76.269531 230.890625 80.15625 228.359375 84.09375 C 227.023438 79.484375 227.628906 75.429688 228.539062 72.574219 C 230.21875 67.308594 234.011719 62.839844 238.683594 60.628906 C 247.152344 56.625 256.171875 56.109375 266.769531 56.964844 C 265.941406 58.324219 265.132812 59.699219 264.574219 60.71875 C 261.636719 66.082031 260.332031 71.882812 259.339844 76.894531 C 258.292969 82.179688 255.375 86.730469 251.332031 89.375 C 246.953125 92.238281 241.421875 92.96875 234.90625 91.539062 C 233.394531 91.214844 231.90625 92.164062 231.578125 93.667969 C 231.25 95.175781 232.203125 96.667969 233.707031 96.996094 C 236.226562 97.550781 238.65625 97.824219 240.996094 97.824219 C 246.015625 97.824219 250.566406 96.550781 254.390625 94.050781 C 259.753906 90.539062 263.460938 84.832031 264.820312 77.976562 C 265.730469 73.375 266.914062 68.070312 269.476562 63.402344 C 270.4375 61.644531 272.460938 58.332031 273.871094 56.113281 C 274.394531 55.296875 274.457031 54.273438 274.035156 53.402344 C 273.617188 52.53125 272.777344 51.9375 271.816406 51.835938 C 260.933594 50.667969 248.3125 49.894531 236.296875 55.582031 C 230.25 58.445312 225.359375 64.164062 223.214844 70.875 C 222.738281 72.371094 222.429688 73.890625 222.234375 75.414062 C 221.753906 74.699219 221.230469 73.96875 220.671875 73.21875 C 222.460938 69.109375 222.714844 64.617188 221.359375 60.367188 Z M 221.359375 60.367188 " fill-opacity="1" fill-rule="nonzero"/><path fill="#02471e" d="M 205.117188 127.167969 C 205.472656 127.320312 205.84375 127.390625 206.207031 127.390625 C 207.292969 127.390625 208.328125 126.753906 208.78125 125.691406 C 209.386719 124.273438 208.722656 122.632812 207.304688 122.027344 C 185.292969 112.648438 172.222656 90.347656 174.785156 66.53125 C 177.722656 39.289062 200.523438 18.9375 227.21875 18.320312 L 220.324219 23.875 C 219.125 24.839844 218.933594 26.601562 219.898438 27.800781 C 220.453125 28.488281 221.261719 28.84375 222.078125 28.84375 C 222.691406 28.84375 223.3125 28.640625 223.828125 28.226562 L 236.527344 18 C 237.730469 17.03125 237.917969 15.273438 236.953125 14.070312 L 226.726562 1.371094 C 225.757812 0.171875 224 -0.0195312 222.796875 0.949219 C 221.597656 1.917969 221.40625 3.675781 222.375 4.878906 L 228.675781 12.699219 C 198.554688 12.582031 172.53125 35.335938 169.230469 65.929688 C 166.402344 92.207031 180.824219 116.816406 205.117188 127.167969 Z M 205.117188 127.167969 " fill-opacity="1" fill-rule="nonzero"/><g clip-path="url(#4363318899)"><path fill="#02471e" d="M 249.183594 22.386719 C 271.183594 31.488281 284.769531 54.398438 282.21875 78.105469 C 279.285156 105.347656 256.476562 125.707031 229.773438 126.316406 L 236.675781 120.761719 C 237.875 119.789062 238.066406 118.03125 237.097656 116.832031 C 236.128906 115.628906 234.371094 115.4375 233.171875 116.410156 L 220.46875 126.636719 C 219.894531 127.101562 219.527344 127.773438 219.445312 128.511719 C 219.367188 129.246094 219.582031 129.984375 220.046875 130.5625 L 230.277344 143.261719 C 230.828125 143.945312 231.636719 144.300781 232.453125 144.300781 C 233.070312 144.300781 233.6875 144.097656 234.203125 143.683594 C 235.40625 142.714844 235.59375 140.957031 234.628906 139.757812 L 228.320312 131.929688 C 228.394531 131.929688 228.46875 131.933594 228.542969 131.933594 C 258.574219 131.929688 284.484375 109.222656 287.773438 78.707031 C 290.589844 52.550781 275.597656 27.269531 251.316406 17.226562 C 249.890625 16.636719 248.257812 17.316406 247.664062 18.738281 C 247.074219 20.160156 247.757812 21.796875 249.183594 22.386719 Z M 249.183594 22.386719 " fill-opacity="1" fill-rule="nonzero"/></g></svg>